<svg width="430" height="390" viewBox="0 0 430 390" fill="none" xmlns="http://www.w3.org/2000/svg">
<rect opacity="0.7" x="240" y="320" width="30" height="30" fill="#00B1CA"/>
<rect opacity="0.8" x="200" y="360" width="30" height="30" fill="#00B1CA"/>
<rect opacity="0.8" x="200" y="320" width="30" height="30" fill="#009FBD"/>
<rect opacity="0.8" x="160" y="320" width="30" height="30" fill="#00B1CA"/>
<rect opacity="0.8" x="200" y="240" width="30" height="30" fill="#00B1CA"/>
<rect opacity="0.8" x="160" y="280" width="30" height="30" fill="#00B1CA"/>
<rect opacity="0.8" x="160" y="240" width="30" height="30" fill="#00B1CA"/>
<rect opacity="0.9" x="120" y="240" width="30" height="30" fill="#009FBD"/>
<rect opacity="0.6" x="360" y="120" width="30" height="30" fill="#00B1CA"/>
<rect opacity="0.7" x="240" y="280" width="30" height="30" fill="#00B1CA"/>
<rect opacity="0.6" x="320" y="120" width="30" height="30" fill="#0187AB"/>
<rect opacity="0.8" x="160" y="120" width="30" height="30" fill="#00B1CA"/>
<rect opacity="0.9" x="120" y="280" width="30" height="30" fill="#009FBD"/>
<rect opacity="0.7" x="280" y="280" width="30" height="30" fill="#009FBD"/>
<rect opacity="0.6" x="320" y="240" width="30" height="30" fill="#009FBD"/>
<rect opacity="0.7" x="280" y="240" width="30" height="30" fill="#0187AB"/>
<rect opacity="0.6" x="360" y="200" width="30" height="30" fill="#0187AB"/>
<rect opacity="0.8" x="200" y="280" width="30" height="30" fill="#0187AB"/>
<rect opacity="0.6" x="360" y="160" width="30" height="30" fill="#0187AB"/>
<rect opacity="0.6" x="320" y="200" width="30" height="30" fill="#009FBD"/>
<rect opacity="0.6" x="320" y="160" width="30" height="30" fill="#009FBD"/>
<rect opacity="0.7" x="280" y="160" width="30" height="30" fill="#009FBD"/>
<rect opacity="0.6" x="360" y="160" width="30" height="30" fill="#0187AB"/>
<rect opacity="0.9" x="80" y="120" width="30" height="30" fill="#009FBD"/>
<rect x="40" y="160" width="30" height="30" fill="#0187AB"/>
<rect x="40" y="120" width="30" height="30" fill="#0187AB"/>
<rect opacity="0.9" x="120" y="120" width="30" height="30" fill="#009FBD"/>
<rect opacity="0.6" x="320" y="80" width="30" height="30" fill="#009FBD"/>
<rect opacity="0.7" x="240" y="80" width="30" height="30" fill="#00B1CA"/>
<rect opacity="0.7" x="280" y="80" width="30" height="30" fill="#009FBD"/>
<rect opacity="0.8" x="160" y="80" width="30" height="30" fill="#009FBD"/>
<rect opacity="0.9" x="80" y="80" width="30" height="30" fill="#009FBD"/>
<rect opacity="0.9" x="120" y="80" width="30" height="30" fill="#0187AB"/>
<rect x="40" y="160" width="30" height="30" fill="#0187AB"/>
<rect opacity="0.5" x="400" y="80" width="30" height="30" fill="#0187AB"/>
<rect opacity="0.5" x="400" y="160" width="30" height="30" fill="#0187AB"/>
<rect opacity="0.5" x="400" y="120" width="30" height="30" fill="#009FBD"/>
<rect y="80" width="30" height="30" fill="#0187AB"/>
<rect y="120" width="30" height="30" fill="#0187AB"/>
<rect y="160" width="30" height="30" fill="#0187AB"/>
<rect opacity="0.6" x="360" y="80" width="30" height="30" fill="#0187AB"/>
<rect x="40" y="80" width="30" height="30" fill="#00B1CA"/>
<rect opacity="0.6" x="320" y="40" width="30" height="30" fill="#0187AB"/>
<rect opacity="0.7" x="240" y="40" width="30" height="30" fill="#0187AB"/>
<rect opacity="0.7" x="280" y="40" width="30" height="30" fill="#009FBD"/>
<rect opacity="0.8" x="160" y="40" width="30" height="30" fill="#00B1CA"/>
<rect opacity="0.9" x="80" y="40" width="30" height="30" fill="#009FBD"/>
<rect opacity="0.9" x="120" y="40" width="30" height="30" fill="#009FBD"/>
<rect opacity="0.7" x="280" width="30" height="30" fill="#009FBD"/>
<rect opacity="0.6" x="320" width="30" height="30" fill="#009FBD"/>
<rect opacity="0.9" x="80" width="30" height="30" fill="#009FBD"/>
<rect opacity="0.9" x="120" width="30" height="30" fill="#009FBD"/>
<rect opacity="0.6" x="360" y="40" width="30" height="30" fill="#00B1CA"/>
<rect x="40" y="40" width="30" height="30" fill="#009FBD"/>
<rect opacity="0.8" x="200" y="80" width="30" height="30" fill="#00B1CA"/>
<rect opacity="0.9" x="80" y="160" width="30" height="30" fill="#009FBD"/>
<rect opacity="0.7" x="280" y="120" width="30" height="30" fill="#009FBD"/>
<rect opacity="0.7" x="240" y="160" width="30" height="30" fill="#00B1CA"/>
<rect opacity="0.7" x="240" y="120" width="30" height="30" fill="#0187AB"/>
<rect opacity="0.8" x="200" y="120" width="30" height="30" fill="#00B1CA"/>
<rect opacity="0.8" x="200" y="160" width="30" height="30" fill="#00B1CA"/>
<rect opacity="0.8" x="160" y="200" width="30" height="30" fill="#00B1CA"/>
<rect opacity="0.8" x="160" y="160" width="30" height="30" fill="#009FBD"/>
<rect opacity="0.9" x="120" y="160" width="30" height="30" fill="#009FBD"/>
<rect x="40" y="200" width="30" height="30" fill="#00B1CA"/>
<rect opacity="0.7" x="280" y="200" width="30" height="30" fill="#009FBD"/>
<rect opacity="0.7" x="240" y="240" width="30" height="30" fill="#009FBD"/>
<rect opacity="0.7" x="240" y="200" width="30" height="30" fill="#00B1CA"/>
<rect opacity="0.8" x="200" y="200" width="30" height="30" fill="#0187AB"/>
<rect opacity="0.9" x="120" y="200" width="30" height="30" fill="#009FBD"/>
<rect opacity="0.9" x="80" y="240" width="30" height="30" fill="#009FBD"/>
<rect opacity="0.9" x="80" y="200" width="30" height="30" fill="#0187AB"/>
</svg>
